<?xml version="1.0" standalone="no"?>
<!DOCTYPE svg PUBLIC "-//W3C//DTD SVG 20010904//EN"
 "http://www.w3.org/TR/2001/REC-SVG-20010904/DTD/svg10.dtd">
<svg version="1.0" xmlns="http://www.w3.org/2000/svg"
 width="1000.000000pt" height="1000.000000pt" viewBox="0 0 1000.000000 1000.000000"
 preserveAspectRatio="xMidYMid meet">
<metadata>
Created by potrace 1.14, written by Peter Selinger 2001-2017
</metadata>
<g transform="translate(0.000000,1000.000000) scale(0.100000,-0.100000)"
fill="#000000" stroke="none">
<path d="M4195 8049 c-202 -29 -401 -190 -514 -416 -37 -75 -86 -221 -95 -285
-4 -27 -11 -48 -17 -48 -13 0 -12 -347 1 -352 6 -2 14 -29 20 -61 18 -112 85
-276 153 -377 42 -62 143 -166 197 -204 58 -40 83 -53 147 -77 28 -11 53 -25
55 -32 4 -13 -4 -516 -21 -1342 -6 -297 -16 -804 -22 -1126 l-12 -586 24 -43
c13 -24 43 -58 67 -74 36 -26 53 -31 102 -31 76 0 134 37 169 108 l24 48 -12
582 c-6 320 -16 814 -22 1097 -15 696 -25 1352 -21 1367 2 7 27 21 55 32 166
62 312 202 406 388 172 343 146 817 -62 1123 -71 104 -198 218 -288 257 -80
36 -103 43 -174 53 -79 11 -77 11 -160 -1z m196 -115 c229 -65 403 -278 470
-576 27 -122 27 -344 0 -466 -66 -294 -233 -501 -464 -573 -43 -13 -73 -29
-81 -42 -12 -18 -13 -86 -5 -392 5 -203 13 -635 18 -960 6 -324 16 -849 22
-1165 7 -316 9 -587 6 -601 -4 -15 -21 -33 -41 -44 -33 -18 -37 -18 -70 -2
-23 10 -38 26 -42 43 -4 15 -2 295 5 623 6 328 18 956 26 1396 8 440 15 866
17 946 2 110 0 150 -10 162 -8 9 -43 25 -80 37 -189 58 -343 215 -420 430 -54
148 -57 166 -57 370 0 209 7 255 60 390 123 314 398 495 646 424z"/>
<path d="M5398 7984 c-15 -8 -33 -24 -40 -37 -12 -22 -22 -201 -47 -837 -6
-146 -15 -357 -21 -470 -6 -113 -15 -317 -21 -455 -9 -242 -28 -682 -48 -1185
-6 -135 -15 -339 -21 -455 -6 -115 -15 -327 -20 -470 -6 -143 -14 -345 -20
-450 -5 -104 -10 -260 -12 -346 -2 -147 -1 -157 21 -193 38 -60 94 -90 168
-90 55 0 68 4 100 31 21 16 48 44 59 61 21 31 22 39 28 704 3 370 10 1447 15
2393 7 1397 6 1726 -5 1752 -13 32 -58 63 -91 63 -10 -1 -30 -7 -45 -16z m27
-2954 c-4 -1211 -10 -1846 -16 -1868 -11 -32 -51 -62 -84 -62 -9 0 -30 14 -47
31 l-31 30 7 112 c6 101 14 299 46 1062 5 138 15 345 20 460 6 116 15 320 20
455 5 135 14 353 20 485 25 590 30 720 35 880 3 94 8 204 12 245 19 235 23
-150 18 -1830z"/>
<path d="M5639 7989 c-14 -5 -34 -25 -44 -43 -17 -31 -17 -137 -7 -2407 8
-1598 15 -2386 22 -2411 47 -165 271 -182 350 -27 25 47 25 79 6 479 -9 168
-22 474 -31 680 -9 206 -20 474 -26 595 -5 121 -14 333 -19 470 -5 138 -14
349 -20 470 -14 294 -28 636 -40 940 -5 138 -14 347 -20 465 -6 118 -15 326
-20 462 -6 136 -14 257 -19 270 -19 51 -80 77 -132 57z m85 -1311 c4 -46 11
-204 16 -353 6 -148 17 -430 25 -625 8 -195 19 -467 25 -605 5 -137 14 -342
20 -455 6 -113 15 -329 20 -480 6 -151 12 -300 15 -330 13 -139 25 -659 16
-682 -13 -35 -62 -54 -99 -39 -58 24 -54 -89 -62 1785 -5 952 -6 1774 -3 1826
7 108 17 93 27 -42z"/>
<path d="M5823 2305 c-133 -36 -213 -105 -213 -182 0 -62 58 -93 171 -93 62 0
55 -12 -15 -29 -182 -44 -289 -179 -208 -261 40 -40 90 -47 187 -27 143 30
235 95 235 169 l0 28 -60 -41 c-76 -52 -154 -79 -228 -79 -46 0 -63 4 -77 20
-16 18 -17 23 -4 47 28 53 162 123 267 139 41 6 88 45 77 64 -2 4 -63 10 -135
13 -138 6 -167 15 -150 47 23 43 164 100 247 100 46 0 56 -13 22 -30 -11 -7
-19 -13 -17 -16 2 -2 29 9 59 24 50 26 54 32 57 67 2 24 -2 41 -10 46 -20 13
-147 9 -205 -6z"/>
<path d="M6988 2294 c-35 -11 -52 -23 -63 -44 -25 -49 -20 -67 20 -72 36 -4
47 5 18 16 -31 12 3 28 73 34 56 4 69 2 79 -12 21 -27 7 -51 -64 -115 -37 -32
-78 -80 -92 -105 -22 -43 -23 -48 -9 -73 17 -29 34 -32 36 -5 1 9 2 22 3 29 0
6 24 38 52 70 59 66 109 163 109 209 0 17 -9 43 -21 58 -24 30 -65 33 -141 10z"/>
<path d="M3770 2243 c-72 -82 -175 -227 -211 -300 -26 -52 -31 -71 -26 -109 7
-65 22 -76 54 -39 81 97 135 155 143 155 5 0 -7 -30 -26 -66 -37 -70 -43 -111
-19 -120 23 -9 68 13 106 52 18 19 36 34 40 34 4 0 10 -12 14 -27 7 -30 32
-63 47 -63 5 0 37 26 70 58 34 31 59 49 55 40 -13 -36 -17 -84 -8 -97 16 -25
62 -2 133 66 37 37 68 64 68 61 0 -3 -7 -25 -15 -48 -16 -46 -13 -71 10 -90
19 -16 68 7 128 60 61 54 65 85 5 41 -68 -50 -96 -37 -76 36 5 21 21 57 35 80
19 33 31 42 56 45 23 2 38 12 55 38 20 30 21 36 8 38 -20 4 -21 26 -1 42 8 7
15 19 15 26 0 25 -32 15 -64 -19 -21 -22 -45 -36 -70 -40 -44 -7 -62 -20 -82
-59 l-15 -28 36 0 c19 0 35 -3 35 -7 0 -12 -67 -95 -98 -121 -89 -78 -152 -49
-86 39 19 26 24 42 20 67 -3 18 0 32 5 32 6 0 9 10 7 23 -5 33 -40 33 -111 -1
-71 -33 -162 -111 -171 -145 -7 -31 -79 -72 -94 -54 -13 15 3 52 49 109 33 42
35 51 14 68 -23 19 -52 2 -136 -80 -69 -68 -79 -75 -79 -54 0 15 23 51 61 97
61 72 175 231 199 276 10 19 10 25 -1 32 -22 14 -25 12 -79 -48z m300 -249 c0
-3 -21 -32 -46 -64 -80 -102 -158 -139 -140 -65 8 31 40 60 114 102 57 33 72
38 72 27z"/>
<path d="M6564 2285 c-113 -24 -152 -60 -157 -143 l-2 -37 55 -1 c30 -1 44 0
30 3 -49 9 -42 22 26 42 120 36 295 54 308 32 3 -5 -16 -37 -42 -72 -115 -153
-202 -306 -202 -357 0 -28 25 -39 46 -21 26 21 66 89 61 102 -6 15 57 133 134
253 33 50 59 100 59 111 0 34 -21 83 -40 93 -26 14 -204 11 -276 -5z"/>
<path d="M3067 2245 c-21 -8 -44 -12 -51 -9 -7 3 -33 -10 -57 -28 -36 -28 -47
-44 -58 -86 -8 -29 -12 -55 -9 -57 3 -3 53 20 111 50 117 60 177 72 177 35 0
-19 -28 -57 -106 -140 -69 -74 -114 -148 -114 -187 0 -49 16 -73 47 -73 28 0
114 80 216 200 l47 55 -30 -70 c-88 -209 36 -266 181 -83 76 96 162 300 145
344 -7 17 -10 16 -37 -14 -20 -22 -29 -42 -27 -61 5 -63 -170 -301 -221 -301
-12 0 -21 6 -21 13 0 22 46 110 113 220 37 59 67 113 67 120 0 7 -6 21 -13 30
-11 16 -14 16 -34 2 -12 -9 -56 -57 -97 -108 -143 -177 -266 -292 -266 -248 0
5 19 33 43 62 137 169 167 218 167 274 0 51 -28 75 -87 74 -27 0 -65 -7 -86
-14z"/>
<path d="M6185 2042 c-72 -35 -160 -112 -169 -148 -11 -43 27 -134 56 -134 5
0 37 26 70 58 34 31 59 49 55 40 -43 -118 10 -140 109 -46 30 28 54 55 54 60
0 5 -20 -3 -44 -17 -73 -43 -102 -4 -50 66 19 26 24 42 20 67 -3 18 0 32 5 32
6 0 9 10 7 23 -5 33 -43 32 -113 -1z m65 -48 c0 -3 -21 -32 -46 -64 -80 -102
-158 -139 -140 -65 8 31 40 60 114 102 57 33 72 38 72 27z"/>
<path d="M5184 2049 c-42 -12 -120 -83 -145 -131 -21 -41 -39 -54 -64 -45 -12
5 -10 14 10 49 24 41 32 88 19 101 -20 20 -94 -75 -94 -120 0 -22 -51 -83 -69
-83 -20 0 -11 45 24 119 40 82 41 87 20 94 -9 4 -36 -21 -78 -76 -80 -101
-122 -141 -137 -132 -21 13 0 59 50 110 47 48 75 97 63 109 -19 18 -55 2 -96
-44 -77 -86 -93 -139 -57 -198 32 -52 45 -51 107 9 l55 54 -6 -42 c-4 -31 -2
-46 10 -57 19 -19 42 -10 92 37 24 23 43 32 70 32 20 1 43 3 51 5 9 3 17 -6
23 -27 22 -82 101 -81 187 2 63 61 65 80 4 35 -52 -38 -94 -47 -116 -25 -30
30 -20 48 43 79 70 33 110 76 110 116 0 38 -19 46 -76 29z m26 -48 c0 -17 -51
-71 -81 -87 -26 -13 -29 -13 -29 2 0 21 73 94 94 94 9 0 16 -4 16 -9z"/>
<path d="M6895 1860 c-20 -38 -19 -65 2 -85 16 -16 18 -16 35 5 20 25 24 80 6
98 -18 18 -26 15 -43 -18z"/>
</g>
</svg>
